<svg xmlns="http://www.w3.org/2000/svg" width="303" height="59" viewBox="0 0 303 59">
  <path fill="#F6291D" d="M0,58.2942584 L0,7.48086124 L6.29792148,1.1291866 L8.39722864,1.1291866 L8.39722864,49.9665072 L11.056351,49.9665072 L11.056351,24.4186603 L35.6882217,24.4186603 L35.6882217,49.9665072 L38.3473441,49.9665072 L38.3473441,1.1291866 L40.4466513,1.1291866 L40.4466513,51.9425837 L34.1487298,58.2942584 L27.2210162,58.2942584 L27.2210162,32.534689 L13.1556582,32.534689 L13.1556582,51.9425837 L6.85773672,58.2942584 L0,58.2942584 Z M35.6882217,1.1291866 L35.6882217,22.0191388 L11.056351,22.0191388 L11.056351,1.1291866 L13.1556582,1.1291866 L13.1556582,20.0430622 L27.2909931,20.0430622 L27.2909931,7.48086124 L33.5889145,1.1291866 L35.6882217,1.1291866 Z M61.9995381,1.1291866 L61.9995381,51.9425837 L55.7016166,58.2942584 L48.8438799,58.2942584 L48.8438799,7.48086124 L55.1418014,1.1291866 L57.2411085,1.1291866 L57.2411085,49.9665072 L59.9002309,49.9665072 L59.9002309,1.1291866 L61.9995381,1.1291866 Z M81.4531178,5.50478469 L87.4711316,5.50478469 C96.9879908,5.50478469 103.285912,10.5861244 103.285912,18.9138756 C103.285912,28.5825359 96.7080831,33.2404306 86.9113164,33.2404306 L81.4531178,33.2404306 L81.4531178,5.50478469 Z M83.482448,31.2643541 L87.191224,31.2643541 C90.9699769,31.2643541 92.5094688,30.4880383 93.9789838,28.9354067 C95.2385681,27.5944976 95.8683603,25.2655502 95.8683603,22.8660287 C95.8683603,20.2547847 94.8886836,17.9258373 93.2092379,16.1614833 C91.4598152,14.326555 88.9406467,13.0562201 85.5117783,13.0562201 L83.482448,13.0562201 L83.482448,31.2643541 Z M103.915704,49.9665072 L86.0016166,35.4282297 L86.8413395,35.4282297 C97.7577367,35.4282297 105.945035,29.6411483 105.945035,18.7727273 C105.945035,9.24521531 98.1775982,3.10526316 87.5411085,3.10526316 L78.7939954,3.10526316 L78.7939954,49.9665072 L81.4531178,49.9665072 L81.4531178,35.4282297 L82.3628176,35.4282297 L100.136952,49.9665072 L103.915704,49.9665072 Z M83.5524249,47.8492823 L83.5524249,51.9425837 L77.2545035,58.2942584 L70.3967667,58.2942584 L70.3967667,7.48086124 L76.6946882,1.1291866 L87.6110855,1.1291866 C99.9270208,1.1291866 108.184296,8.04545455 108.184296,18.7727273 C108.184296,24.9832536 105.455196,29.0059809 104.405543,30.4174641 C102.166282,33.4521531 98.1775982,37.2631579 94.7487298,39.8744019 L109.653811,51.9425837 L103.355889,58.2942584 L96.078291,58.2942584 L83.5524249,47.8492823 Z M121.549885,3.10526316 L121.549885,49.9665072 L142.403002,49.9665072 L142.403002,51.9425837 L136.315012,58.0825359 L113.152656,58.0825359 L113.152656,7.48086124 L119.450577,1.1291866 L142.263048,1.1291866 L142.263048,3.10526316 L121.549885,3.10526316 Z M142.403002,45.5909091 L142.403002,47.5669856 L124.209007,47.5669856 L124.209007,24.4186603 L141.913164,24.4186603 L141.913164,26.3947368 L135.825173,32.534689 L126.308314,32.534689 L126.308314,45.5909091 L142.403002,45.5909091 Z M141.913164,20.0430622 L141.913164,22.0191388 L124.209007,22.0191388 L124.209007,5.50478469 L142.263048,5.50478469 L142.263048,7.48086124 L136.175058,13.6208134 L126.308314,13.6208134 L126.308314,20.0430622 L141.913164,20.0430622 Z M181.939954,48.3433014 C178.091224,48.3433014 175.152194,47.708134 171.16351,45.8732057 L170.673672,48.2727273 C174.732333,50.1076555 178.161201,50.742823 181.869977,50.742823 C190.61709,50.742823 196.215242,45.09689 196.215242,38.2511962 C196.215242,32.111244 193.136259,28.7236842 184.389145,23.2188995 C177.321478,18.7727273 175.572055,16.0203349 175.572055,12.4916268 C175.572055,8.39832536 178.441109,4.58732057 184.809007,4.58732057 C187.957968,4.58732057 191.876674,5.50478469 195.095612,7.19856459 L194.46582,9.24521531 L189.357506,14.4677033 C186.978291,13.2679426 184.459122,12.3504785 182.149885,12.3504785 C180.400462,12.3504785 179.350808,12.7739234 178.790993,13.3385167 C178.511085,13.6208134 178.301155,14.1148325 178.301155,14.4677033 C178.301155,15.7380383 179.210855,17.5023923 185.578753,21.4545455 C194.115935,26.7476077 198.31455,31.1937799 198.31455,38.2511962 C198.31455,44.0382775 194.745727,49.1196172 190.827021,53.0717703 C187.258199,56.6710526 182.219861,59 176.691686,59 C172.07321,59 167.804619,58.0119617 162.906236,55.8241627 L164.235797,48.9784689 L170.113857,43.0502392 C173.822633,44.8851675 177.391455,46.2260766 180.330485,46.2260766 C182.219861,46.2260766 182.989607,45.8732057 183.689376,45.1674641 C184.249192,44.6028708 184.529099,43.7559809 184.529099,42.5562201 C184.529099,40.1566986 183.269515,37.5454545 176.061894,33.0287081 C168.294457,28.1590909 165.425404,23.9246411 165.425404,18.208134 C165.425404,14.1854067 167.034873,10.7978469 171.933256,5.8576555 C176.341801,1.41148325 180.470439,0.0705741627 184.948961,0.0705741627 C189.007621,0.0705741627 192.43649,0.917464115 196.355196,2.61124402 L195.725404,4.7284689 C192.016628,3.17583732 188.517783,2.18779904 184.878984,2.18779904 C177.461432,2.18779904 172.842956,7.05741627 172.842956,12.562201 C172.842956,16.937799 175.222171,20.4665072 182.989607,25.3361244 C191.316859,30.5586124 193.486143,33.5227273 193.486143,38.3923445 C193.486143,44.1794258 189.007621,48.3433014 181.939954,48.3433014 Z M224.905774,9.4569378 L235.682217,38.0394737 L213.569515,38.0394737 L224.905774,9.4569378 Z M225.88545,36.0633971 L221.336952,23.854067 L216.438568,36.0633971 L225.88545,36.0633971 Z M212.1,48.0610048 L210.630485,51.9425837 L204.332564,58.2942584 L195.795381,58.2942584 L215.598845,8.46889952 L223.926097,0 L225.88545,0 L245.898845,51.9425837 L239.600924,58.2942584 L234.072748,58.2942584 L230.293995,48.0610048 L212.1,48.0610048 Z M242.889838,49.9665072 L225.045727,2.89354067 L224.76582,2.89354067 L206.361894,49.9665072 L209.090993,49.9665072 L212.659815,40.4389952 L236.591917,40.4389952 L240.090762,49.9665072 L242.889838,49.9665072 Z M256.885219,4.23444976 L256.885219,49.9665072 L259.404388,49.9665072 L259.404388,11.9270335 L278.927945,38.604067 L278.997921,38.604067 L298.381524,11.9976077 L298.381524,49.9665072 L300.900693,49.9665072 L300.900693,4.23444976 L300.690762,4.23444976 L278.997921,34.2990431 L257.09515,4.23444976 L256.885219,4.23444976 Z M254.785912,0.635167464 L256.745266,0.635167464 L276.618707,27.4533493 L291.103926,7.76315789 L300.97067,0.635167464 L303,0.635167464 L303,51.9425837 L296.702079,58.2942584 L289.984296,58.2942584 L289.984296,26.888756 L275.499076,46.9318182 L274.099538,46.9318182 L261.433718,29.9940191 L261.503695,51.9425837 L255.205774,58.2942584 L248.487991,58.2942584 L248.487991,6.98684211 L254.785912,0.635167464 Z"/>
</svg>
